<?xml version="1.0" standalone="no"?>
<!DOCTYPE svg PUBLIC "-//W3C//DTD SVG 20010904//EN"
 "http://www.w3.org/TR/2001/REC-SVG-20010904/DTD/svg10.dtd">
<svg version="1.0" xmlns="http://www.w3.org/2000/svg"
 width="188.000000pt" height="212.000000pt" viewBox="0 0 188.000000 212.000000"
 preserveAspectRatio="xMidYMid meet">

<g transform="translate(0.000000,212.000000) scale(0.100000,-0.100000)"
fill="#000000" stroke="none">
<path d="M0 1060 l0 -1060 940 0 940 0 0 1060 0 1060 -940 0 -940 0 0 -1060z
m388 1023 c12 -11 44 -82 75 -168 124 -342 212 -575 217 -575 3 0 27 98 54
218 27 119 51 220 53 225 2 4 16 -2 30 -13 31 -24 80 -26 111 -4 13 9 25 14
26 13 2 -2 23 -152 47 -334 l44 -330 -69 -3 c-37 -2 -70 -2 -71 0 -2 2 -13 76
-26 166 -12 89 -23 161 -25 159 -3 -3 -74 -311 -74 -322 0 -3 -39 -4 -87 -3
l-86 3 -91 246 -91 247 -3 -249 -2 -248 -47 -3 c-88 -6 -80 -68 9 -68 l38 0 0
-454 c0 -290 -4 -464 -10 -483 -13 -35 -50 -56 -86 -47 -56 14 -54 -20 -54
1029 l0 966 25 24 c28 29 65 32 93 8z m1122 -603 l0 -390 -24 0 c-14 0 -28 5
-31 10 -3 6 -24 10 -46 10 l-39 0 0 380 0 380 70 0 70 0 0 -390z m0 -900 l0
-481 -25 -24 c-13 -14 -31 -25 -40 -25 -10 0 -85 35 -169 77 l-153 76 30 27
c23 20 31 36 31 63 1 21 2 37 4 37 1 0 43 -20 92 -45 l90 -45 0 400 0 400 33
0 c17 0 39 5 47 10 8 5 25 10 38 10 l22 0 0 -480z m-760 451 c0 -24 -81 -29
-100 -6 -11 13 -5 15 44 15 31 0 56 -4 56 -9z m348 -303 c24 -172 42 -318 42
-325 0 -7 -13 -9 -40 -6 -28 4 -47 0 -66 -12 -14 -9 -27 -15 -29 -13 -1 2 -21
143 -44 313 -23 171 -44 320 -47 333 -4 21 -2 22 69 22 l73 0 42 -312z"/>
</g>
</svg>
